<?xml version="1.0" encoding="UTF-8" standalone="no"?>
<!DOCTYPE svg PUBLIC "-//W3C//DTD SVG 1.1//EN" "http://www.w3.org/Graphics/SVG/1.1/DTD/svg11.dtd">
<svg width="100%" height="100%" viewBox="0 0 2433 627" version="1.1" xmlns="http://www.w3.org/2000/svg" xmlns:xlink="http://www.w3.org/1999/xlink" xml:space="preserve" xmlns:serif="http://www.serif.com/" style="fill-rule:evenodd;clip-rule:evenodd;stroke-linejoin:round;stroke-miterlimit:2;">
    <g transform="matrix(4.16667,0,0,4.16667,0,-182.696)">
        <path d="M51.394,148.147L24.664,121.415L10.128,135.954L21.309,45.955L64.149,45.955L57.312,100.978C60.674,98.439 64.895,96.375 69.983,94.79C75.066,93.204 80.272,92.412 85.603,92.412C92.496,92.412 98.662,93.421 104.105,95.441L51.394,148.147Z" style="fill:rgb(51,51,51);fill-rule:nonzero;"/>
    </g>
    <g transform="matrix(4.16667,0,0,4.16667,0,414.662)">
        <path d="M3.828,43.292L8.284,7.444L44.004,43.292L3.828,43.292Z" style="fill:rgb(0,151,255);fill-rule:nonzero;"/>
    </g>
    <g transform="matrix(4.16667,0,0,4.16667,0,292.829)">
        <path d="M58.48,72.715L58.494,72.698L126.604,4.589C128.764,11.199 129.333,18.616 128.312,26.834C127.115,36.483 124.057,44.986 119.146,52.347C114.234,59.711 107.88,65.39 100.084,69.389C92.288,73.388 83.44,75.387 73.54,75.387C68.259,75.387 63.239,74.496 58.48,72.715Z" style="fill:rgb(0,151,255);fill-rule:nonzero;"/>
    </g>
    <g transform="matrix(4.16667,0,0,4.16667,0,0)">
        <path d="M152.499,38.615L180.748,38.615C186.007,38.615 190.239,39.904 193.444,42.484C196.65,45.063 198.252,48.707 198.252,53.415C198.252,55.418 197.814,57.321 196.938,59.124C196.061,60.928 194.797,62.405 193.144,63.557C195.548,64.709 197.263,66.161 198.29,67.914C199.317,69.667 199.83,71.946 199.83,74.751C199.83,78.057 199.029,80.949 197.426,83.428C195.823,85.908 193.67,87.811 190.965,89.138C188.26,90.465 185.255,91.129 181.95,91.129L152.499,91.129L152.499,38.615ZM175.639,58.523C177.192,58.523 178.331,58.21 179.057,57.584C179.783,56.958 180.147,55.919 180.147,54.467C180.147,53.114 179.783,52.138 179.057,51.537C178.331,50.936 177.192,50.635 175.639,50.635L169.779,50.635L169.779,58.523L175.639,58.523ZM176.616,79.109C178.419,79.109 179.721,78.758 180.522,78.057C181.324,77.356 181.724,76.229 181.724,74.676C181.724,73.123 181.324,71.984 180.522,71.258C179.721,70.531 178.419,70.168 176.616,70.168L169.779,70.168L169.779,79.109L176.616,79.109Z" style="fill:rgb(51,51,51);fill-rule:nonzero;"/>
        <path d="M224.322,92.256C216.909,92.256 211.137,90.603 207.005,87.297C202.873,83.992 200.807,79.309 200.807,73.249C200.807,67.288 202.672,62.58 206.404,59.124C210.135,55.669 215.507,53.941 222.519,53.941C226.976,53.941 230.795,54.767 233.976,56.42C237.156,58.073 239.56,60.327 241.188,63.181C242.816,66.036 243.63,69.242 243.63,72.798L243.63,77.681L216.884,77.681C218.337,80.286 221.617,81.588 226.726,81.588C229.08,81.588 231.547,81.4 234.126,81.024C236.705,80.649 238.897,80.11 240.7,79.409L240.7,89.551C238.696,90.353 236.23,91.004 233.3,91.505C230.37,92.005 227.377,92.256 224.322,92.256ZM227.703,68.44C227.102,65.936 225.273,64.684 222.218,64.684C219.263,64.684 217.485,65.936 216.884,68.44L227.703,68.44Z" style="fill:rgb(51,51,51);fill-rule:nonzero;"/>
        <path d="M246.109,55.068L262.412,55.068L262.412,58.073C263.914,56.77 265.667,55.756 267.671,55.03C269.674,54.304 271.778,53.941 273.981,53.941C279.24,53.941 283.084,55.255 285.514,57.885C287.943,60.514 289.157,64.158 289.157,68.816L289.157,91.129L272.254,91.129L272.254,71.295C272.254,69.893 271.966,68.829 271.39,68.102C270.814,67.376 269.874,67.013 268.572,67.013C266.118,67.013 264.265,68.14 263.013,70.394L263.013,91.129L246.109,91.129L246.109,55.068Z" style="fill:rgb(51,51,51);fill-rule:nonzero;"/>
        <path d="M313.123,92.256C306.312,92.256 300.965,90.616 297.083,87.335C293.202,84.054 291.261,79.309 291.261,73.098C291.261,66.888 293.202,62.142 297.083,58.862C300.965,55.581 306.312,53.941 313.123,53.941C316.228,53.941 319.234,54.229 322.139,54.805C325.043,55.381 327.372,56.194 329.125,57.246L329.125,70.168C327.623,69.066 325.832,68.215 323.754,67.614C321.675,67.013 319.559,66.712 317.405,66.712C314.801,66.712 312.71,67.263 311.132,68.365C309.555,69.467 308.766,71.045 308.766,73.098C308.766,75.202 309.555,76.792 311.132,77.869C312.71,78.946 314.801,79.484 317.405,79.484C319.509,79.484 321.625,79.171 323.754,78.545C325.882,77.919 327.798,77.03 329.501,75.878L329.501,88.8C327.698,89.852 325.344,90.691 322.439,91.317C319.534,91.943 316.429,92.256 313.123,92.256Z" style="fill:rgb(51,51,51);fill-rule:nonzero;"/>
        <path d="M331.98,35.609L348.884,35.609L348.884,57.847C352.14,55.243 355.796,53.941 359.853,53.941C365.112,53.941 368.956,55.255 371.385,57.885C373.814,60.514 375.029,64.158 375.029,68.816L375.029,91.129L358.125,91.129L358.125,71.295C358.125,69.893 357.837,68.829 357.261,68.102C356.685,67.376 355.746,67.013 354.444,67.013C351.989,67.013 350.136,68.14 348.884,70.394L348.884,91.129L331.98,91.129L331.98,35.609Z" style="fill:rgb(51,51,51);fill-rule:nonzero;"/>
        <path d="M378.635,55.068L394.186,55.068L394.186,58.073C397.041,55.318 400.622,53.941 404.93,53.941C407.484,53.941 409.55,54.279 411.128,54.955C412.705,55.631 414.045,56.645 415.147,57.998C416.65,56.745 418.403,55.756 420.406,55.03C422.409,54.304 424.488,53.941 426.642,53.941C431.6,53.941 435.106,55.218 437.159,57.772C439.213,60.327 440.24,64.008 440.24,68.816L440.24,91.129L424.087,91.129L424.087,71.295C424.087,69.843 423.849,68.766 423.373,68.065C422.898,67.364 422.034,67.013 420.782,67.013C419.73,67.013 418.778,67.263 417.927,67.764L417.927,91.129L401.774,91.129L401.774,70.469C401.774,69.317 401.549,68.453 401.098,67.877C400.647,67.301 399.896,67.013 398.844,67.013C397.141,67.013 395.789,67.965 394.787,69.868L394.787,91.129L378.635,91.129L378.635,55.068Z" style="fill:rgb(51,51,51);fill-rule:nonzero;"/>
        <path d="M456.693,92.256C451.985,92.256 448.228,91.217 445.424,89.138C442.619,87.06 441.216,84.017 441.216,80.01C441.216,75.953 442.581,72.873 445.311,70.769C448.041,68.666 452.085,67.614 457.444,67.614C459.047,67.614 460.8,67.802 462.703,68.177C464.606,68.553 466.184,68.991 467.436,69.492L467.436,68.891C467.436,67.589 466.61,66.562 464.957,65.811C463.304,65.06 461.125,64.684 458.421,64.684C454.063,64.684 450.081,65.585 446.475,67.389L446.475,56.645C448.128,55.844 450.307,55.193 453.011,54.692C455.716,54.191 458.696,53.941 461.952,53.941C469.164,53.941 474.698,55.268 478.555,57.922C482.412,60.577 484.34,64.333 484.34,69.192L484.34,91.129L468.413,91.129L468.413,88.5C467.261,89.551 465.62,90.44 463.492,91.167C461.363,91.893 459.097,92.256 456.693,92.256ZM462.102,82.94C463.154,82.94 464.168,82.74 465.145,82.339C466.121,81.938 466.885,81.437 467.436,80.836L467.436,78.432C465.783,77.481 464.005,77.005 462.102,77.005C461.05,77.005 460.224,77.28 459.623,77.831C459.022,78.382 458.721,79.109 458.721,80.01C458.721,80.862 459.009,81.563 459.585,82.114C460.161,82.665 461,82.94 462.102,82.94Z" style="fill:rgb(51,51,51);fill-rule:nonzero;"/>
        <path d="M487.946,55.068L504.249,55.068L504.249,58.298C505.651,56.996 507.554,55.944 509.959,55.143C512.363,54.341 514.942,53.941 517.697,53.941L517.697,67.013C514.742,67.013 512.075,67.401 509.696,68.177C507.317,68.954 505.701,70.043 504.85,71.445L504.85,91.129L487.946,91.129L487.946,55.068Z" style="fill:rgb(51,51,51);fill-rule:nonzero;"/>
        <path d="M520.552,35.609L537.455,35.609L537.455,67.99L546.921,55.068L566.154,55.068L553.533,72.272L568.183,91.129L548.95,91.129L537.455,76.329L537.455,91.129L520.552,91.129L520.552,35.609Z" style="fill:rgb(51,51,51);fill-rule:nonzero;"/>
        <path d="M212.769,120.693L204.755,120.693L204.755,115.704L226.755,115.704L226.755,120.693L218.741,120.693L218.741,143.164L212.769,143.164L212.769,120.693Z" style="fill:rgb(0,151,255);fill-rule:nonzero;"/>
        <path d="M246.083,115.704L257.986,115.704C261.103,115.704 263.532,116.483 265.274,118.041C267.015,119.6 267.886,121.845 267.886,124.779C267.886,126.821 267.415,128.557 266.472,129.984C265.529,131.411 264.193,132.452 262.465,133.107L267.69,143.164L261.561,143.164L256.729,133.853L252.054,133.853L252.054,143.164L246.083,143.164L246.083,115.704ZM256.926,128.864C258.445,128.864 259.643,128.537 260.52,127.882C261.398,127.227 261.836,126.193 261.836,124.779C261.836,123.286 261.404,122.232 260.54,121.616C259.676,121.001 258.471,120.693 256.926,120.693L252.054,120.693L252.054,128.864L256.926,128.864Z" style="fill:rgb(0,151,255);fill-rule:nonzero;"/>
        <path d="M299.864,143.753C295.857,143.753 292.832,142.699 290.789,140.591C288.747,138.483 287.725,135.647 287.725,132.086L287.725,115.704L293.697,115.704L293.697,132.164C293.697,134.155 294.247,135.674 295.346,136.721C296.446,137.769 297.952,138.293 299.864,138.293C301.75,138.293 303.236,137.769 304.323,136.721C305.41,135.674 305.953,134.155 305.953,132.164L305.953,115.704L311.925,115.704L311.925,132.086C311.925,135.647 310.916,138.483 308.9,140.591C306.883,142.699 303.871,143.753 299.864,143.753Z" style="fill:rgb(0,151,255);fill-rule:nonzero;"/>
        <path d="M346.613,143.753C343.68,143.753 341.087,143.171 338.835,142.005C336.583,140.84 334.841,139.183 333.61,137.036C332.379,134.888 331.764,132.361 331.764,129.454C331.764,126.546 332.379,124.013 333.61,121.852C334.841,119.691 336.583,118.028 338.835,116.863C341.087,115.697 343.68,115.115 346.613,115.115C350.411,115.115 353.58,115.979 356.12,117.707L356.12,123.364C354.968,122.395 353.652,121.695 352.172,121.263C350.693,120.83 349.01,120.614 347.124,120.614C344.269,120.614 342.011,121.407 340.347,122.991C338.684,124.576 337.853,126.73 337.853,129.454C337.853,132.203 338.691,134.371 340.367,135.955C342.043,137.54 344.296,138.332 347.124,138.332C349.062,138.332 350.778,138.103 352.27,137.644C353.763,137.186 355.151,136.446 356.435,135.425L356.435,141.082C354.025,142.863 350.751,143.753 346.613,143.753Z" style="fill:rgb(0,151,255);fill-rule:nonzero;"/>
        <path d="M376.47,115.704L382.441,115.704L382.441,127.646L392.813,115.704L399.923,115.704L388.295,129.1L400.709,143.164L393.598,143.164L382.441,130.554L382.441,143.164L376.47,143.164L376.47,115.704Z" style="fill:rgb(0,151,255);fill-rule:nonzero;"/>
        <rect x="420.705" y="115.704" width="5.971" height="27.46" style="fill:rgb(0,151,255);fill-rule:nonzero;"/>
        <path d="M447.497,115.704L453.311,115.704L464.783,133.461L464.783,115.704L470.754,115.704L470.754,143.164L464.979,143.164L453.469,125.407L453.469,143.164L447.497,143.164L447.497,115.704Z" style="fill:rgb(0,151,255);fill-rule:nonzero;"/>
        <path d="M505.6,143.753C502.667,143.753 500.074,143.171 497.821,142.005C495.569,140.84 493.827,139.183 492.596,137.036C491.366,134.888 490.75,132.361 490.75,129.454C490.75,126.546 491.366,124.013 492.596,121.852C493.827,119.691 495.569,118.028 497.821,116.863C500.074,115.697 502.667,115.115 505.6,115.115C507.59,115.115 509.352,115.317 510.884,115.723C512.416,116.129 513.823,116.764 515.107,117.629L515.107,123.325C513.954,122.382 512.638,121.695 511.159,121.263C509.679,120.83 507.996,120.614 506.111,120.614C504.356,120.614 502.778,120.975 501.377,121.695C499.976,122.415 498.869,123.443 498.057,124.779C497.245,126.114 496.839,127.673 496.839,129.454C496.839,131.261 497.212,132.839 497.959,134.187C498.705,135.536 499.759,136.577 501.121,137.311C502.483,138.044 504.055,138.411 505.836,138.411C507.459,138.411 508.874,138.122 510.078,137.546L510.078,132.243L505.639,132.243L505.639,127.843L515.853,127.843L515.853,141.082C513.26,142.863 509.843,143.753 505.6,143.753Z" style="fill:rgb(0,151,255);fill-rule:nonzero;"/>
    </g>
</svg>
